<svg width="32" height="32" viewBox="0 0 32 32" fill="none" xmlns="http://www.w3.org/2000/svg">
<path d="M9.33308 14.1204L15.0531 19.7738C15.177 19.8987 15.3245 19.9979 15.487 20.0656C15.6495 20.1333 15.8237 20.1682 15.9997 20.1682C16.1758 20.1682 16.35 20.1333 16.5125 20.0656C16.675 19.9979 16.8225 19.8987 16.9464 19.7738L22.5997 14.1204C22.7247 13.9965 22.8239 13.849 22.8916 13.6865C22.9593 13.524 22.9941 13.3498 22.9941 13.1738C22.9941 12.9977 22.9593 12.8235 22.8916 12.661C22.8239 12.4985 22.7247 12.351 22.5997 12.2271C22.3499 11.9788 22.012 11.8394 21.6597 11.8394C21.3075 11.8394 20.9696 11.9788 20.7197 12.2271L15.9997 16.9471L11.2797 12.2271C11.0314 11.9808 10.6962 11.8419 10.3464 11.8404C10.1709 11.8394 9.99699 11.873 9.83454 11.9394C9.67209 12.0057 9.52433 12.1035 9.39974 12.2271C9.27031 12.3466 9.16584 12.4905 9.09236 12.6506C9.01889 12.8107 8.97786 12.9838 8.97167 13.1599C8.96547 13.3359 8.99421 13.5114 9.05625 13.6763C9.11828 13.8412 9.21237 13.9921 9.33308 14.1204Z" fill="black"/>
</svg>
